<svg width="1968" height="1228" fill="none" xmlns="http://www.w3.org/2000/svg"><path fill="#E5E5E5" d="M0 0h1968v1228H0z"/><g clip-path="url(#clip0)"><path fill="#fff" d="M11-885h1920v4066H11z"/><path d="M308.208 597.738v549.352l-475.751-274.677 475.751-274.675z" stroke="#EBEBEB"/><circle cx="307.896" cy="1146.88" r="5" transform="rotate(-30 307.896 1146.88)" fill="#F2F2F2"/><circle cx="308.053" cy="597.154" r="5" transform="rotate(-30 308.053 597.154)" fill="#F2F2F2"/><path d="M436.594 39.381v256.396L214.549 167.579 436.594 39.381zM1679.56 711.777V455.381l222.05 128.198-222.05 128.198zm-355.94-137.152L847.874 849.299V299.95l475.746 274.675z" stroke="#EBEBEB"/><circle cx="847.739" cy="299.198" r="5" transform="rotate(30 847.739 299.198)" fill="#F2F2F2"/><circle cx="847.896" cy="848.926" r="5" transform="rotate(30 847.896 848.926)" fill="#F2F2F2"/><circle cx="1324.05" cy="574.198" r="5" transform="rotate(30 1324.05 574.198)" fill="#F2F2F2"/></g><defs><clipPath id="clip0"><path fill="#fff" transform="translate(11 -885)" d="M0 0h1920v4066H0z"/></clipPath></defs></svg>